<svg width="74" height="81" viewBox="0 0 74 81" fill="none" xmlns="http://www.w3.org/2000/svg">
<g filter="url(#filter0_d_11513_218629)">
<path d="M10.0246 27.0234C10.0246 27.0234 -0.149329 31.9936 8.45704 38.655C8.45704 38.655 16.6638 43.8668 36.8888 43.6597" stroke="black" stroke-width="1.5" stroke-miterlimit="10" stroke-linecap="round"/>
<path d="M10.297 29.9581C10.297 29.9581 9.98966 1.44869 36.8846 1" stroke="black" stroke-width="1.5" stroke-miterlimit="10" stroke-linecap="round"/>
<path d="M20.4453 24.7461V6.45312" stroke="black" stroke-width="1.5" stroke-miterlimit="10" stroke-linecap="round"/>
<path d="M36.8906 72.0019C36.8906 72.0019 11.8707 67.9019 13.6534 41" stroke="black" stroke-width="1.5" stroke-linecap="round" stroke-linejoin="round"/>
<path d="M36.8906 72.0019C36.8906 72.0019 61.9106 67.9019 60.1278 41" stroke="black" stroke-width="1.5" stroke-linecap="round" stroke-linejoin="round"/>
<path d="M63.7626 27.0234C63.7626 27.0234 73.9366 31.9936 65.3302 38.655C65.3302 38.655 57.1234 43.8668 36.8984 43.6597" stroke="black" stroke-width="1.5" stroke-miterlimit="10" stroke-linecap="round"/>
<path d="M53.3359 24.7461V6.45312" stroke="black" stroke-width="1.5" stroke-miterlimit="10" stroke-linecap="round"/>
<path d="M36.8984 26.2305V1C63.7933 1.44869 63.486 29.9581 63.486 29.9581" stroke="black" stroke-width="1.5" stroke-miterlimit="10" stroke-linecap="round"/>
<path d="M5.85993 35.4614C3.39857 31.5233 7.70595 28.8978 10.1673 28.0774L10.7832 25.616C12.2601 14.2932 20.4236 6.54023 24.3207 4.07909C35.1507 -0.351356 45.2423 2.23307 48.9343 4.07909C58.7798 8.50954 62.4718 20.283 63.0872 25.616L64.3178 28.0774C74.6555 34.4769 64.5229 39.3586 58.1644 40.9995C43.8885 44.9377 27.6025 43.8711 21.244 42.8455C10.414 40.8764 6.47547 37.1023 5.85993 35.4614Z" fill="url(#paint0_linear_11513_218629)"/>
<path d="M10.0246 27.0234C10.0246 27.0234 -0.149329 31.9936 8.45704 38.655C8.45704 38.655 16.6638 43.8668 36.8888 43.6597" stroke="black" stroke-width="1.5" stroke-miterlimit="10" stroke-linecap="round"/>
<path d="M10.297 29.9581C10.297 29.9581 9.98966 1.44869 36.8846 1" stroke="black" stroke-width="1.5" stroke-miterlimit="10" stroke-linecap="round"/>
<path d="M20.4453 24.7461V6.45312" stroke="black" stroke-width="1.5" stroke-miterlimit="10" stroke-linecap="round"/>
<path d="M63.7548 27.0234C63.7548 27.0234 73.9288 31.9936 65.3224 38.655C65.3224 38.655 57.1156 43.8668 36.8906 43.6597" stroke="black" stroke-width="1.5" stroke-miterlimit="10" stroke-linecap="round"/>
<path d="M53.3359 24.7461V6.45312" stroke="black" stroke-width="1.5" stroke-miterlimit="10" stroke-linecap="round"/>
<path d="M36.8906 26.2305V1C63.7855 1.44869 63.4782 29.9581 63.4782 29.9581" stroke="black" stroke-width="1.5" stroke-miterlimit="10" stroke-linecap="round"/>
</g>
<mask id="path-16-outside-1_11513_218629" maskUnits="userSpaceOnUse" x="29.7109" y="56.6953" width="15" height="9" fill="black">
<rect fill="white" x="29.7109" y="56.6953" width="15" height="9"/>
<path d="M42.7871 58.618C42.7871 59.2645 42.6438 59.9046 42.3655 60.5019C42.0872 61.0991 41.6793 61.6418 41.165 62.0989C40.6507 62.556 40.0402 62.9186 39.3683 63.166C38.6964 63.4134 37.9763 63.5408 37.249 63.5408C36.5217 63.5408 35.8016 63.4134 35.1297 63.166C34.4578 62.9186 33.8473 62.556 33.333 62.0989C32.8187 61.6418 32.4108 61.0991 32.1325 60.5019C31.8542 59.9046 31.7109 59.2645 31.7109 58.618L37.249 58.618H42.7871Z"/>
</mask>
<path d="M42.7871 58.618C42.7871 59.2645 42.6438 59.9046 42.3655 60.5019C42.0872 61.0991 41.6793 61.6418 41.165 62.0989C40.6507 62.556 40.0402 62.9186 39.3683 63.166C38.6964 63.4134 37.9763 63.5408 37.249 63.5408C36.5217 63.5408 35.8016 63.4134 35.1297 63.166C34.4578 62.9186 33.8473 62.556 33.333 62.0989C32.8187 61.6418 32.4108 61.0991 32.1325 60.5019C31.8542 59.9046 31.7109 59.2645 31.7109 58.618L37.249 58.618H42.7871Z" stroke="black" stroke-width="3" stroke-linejoin="round" mask="url(#path-16-outside-1_11513_218629)"/>
<defs>
<filter id="filter0_d_11513_218629" x="0.25" y="0.234375" width="73.2891" height="80.5156" filterUnits="userSpaceOnUse" color-interpolation-filters="sRGB">
<feFlood flood-opacity="0" result="BackgroundImageFix"/>
<feColorMatrix in="SourceAlpha" type="matrix" values="0 0 0 0 0 0 0 0 0 0 0 0 0 0 0 0 0 0 127 0" result="hardAlpha"/>
<feOffset dy="4"/>
<feGaussianBlur stdDeviation="2"/>
<feComposite in2="hardAlpha" operator="out"/>
<feColorMatrix type="matrix" values="0 0 0 0 0 0 0 0 0 0 0 0 0 0 0 0 0 0 0.25 0"/>
<feBlend mode="normal" in2="BackgroundImageFix" result="effect1_dropShadow_11513_218629"/>
<feBlend mode="normal" in="SourceGraphic" in2="effect1_dropShadow_11513_218629" result="shape"/>
</filter>
<linearGradient id="paint0_linear_11513_218629" x1="5.125" y1="22.7135" x2="68.7526" y2="22.7135" gradientUnits="userSpaceOnUse">
<stop stop-color="#FAAD1F"/>
<stop offset="1" stop-color="#FFE820"/>
</linearGradient>
</defs>
</svg>
